<?xml version="1.0" encoding="utf-8"?>
<!-- Generator: Adobe Illustrator 23.0.1, SVG Export Plug-In . SVG Version: 6.00 Build 0)  -->
<svg version="1.1" id="Layer_1" xmlns="http://www.w3.org/2000/svg" xmlns:xlink="http://www.w3.org/1999/xlink" x="0px" y="0px" width="131" height="40"
	 viewBox="0 0 131 40" style="enable-background:new 0 0 131 40;" xml:space="preserve">
<style type="text/css">
	.st0{fill:#FF7A00;}
</style>
<path class="st0" d="M4.3,27.2c-2.5,0-4-1-4.3-1.2l1.1-2c0.8,0.5,1.8,1,3.1,1c1.1,0,2.3-0.4,2.3-1.6c0-2-3.3-2.3-5-4.2
	c-0.5-0.6-0.9-1.4-0.9-2.5c0-2,1.6-3.8,4.5-3.8c2,0,3.5,0.7,3.7,0.7c0,0-0.1,0.2-0.2,0.5c-0.2,0.7-0.8,1.3-2.1,1
	c-0.4-0.1-0.8-0.2-1.3-0.2c-1.1,0-2,0.5-2,1.4c0,2.5,5.9,2.4,5.9,6.6C9.1,25.6,7,27.2,4.3,27.2"/>
<path class="st0" d="M51.8,23.7v-4.9h2.1l0.7-1.9h-2.9v-3h-0.2c-1.1,0-2.3,0.5-2.3,3v0h-1.9v1.9h1.9v5.8c0,1.6,1,2.5,2.3,2.5
	c1.1,0,2.6-0.3,2.6-2.6C54,24.6,53.5,25,52.9,25C52.1,25,51.8,24.5,51.8,23.7"/>
<path class="st0" d="M23.1,16.7c-2.2,0-3.3,1.4-3.5,1.7c-0.6-1-1.6-1.7-2.9-1.7c-1.9,0-3,1.1-3.2,1.3c-0.1-0.3-0.5-1.1-1.7-1.1
	c-0.4,0-0.9,0.1-0.9,0.1c0.1,0.2,0.3,1.4,0.3,2.9v6.9h2.5v-7c0.1,0,1-1,2.1-1c1.2,0,1.7,0.9,1.7,2v6H20v-7.1c0,0,1-1,2.1-1
	s1.7,0.9,1.7,2v6h2.6v-6.4C26.4,18.2,25.1,16.7,23.1,16.7"/>
<path class="st0" d="M44.5,16.7c-1.2,0-2.3,1-2.7,1.4c-0.2-0.5-0.5-1.2-1.8-1.2c-0.3,0-0.7,0.1-0.7,0.1c0.1,0.4,0.3,1.1,0.3,2.4v7.5
	h2.5v-7.1c0.3-0.2,1-0.9,2-0.9c0.7,0,1.1,0.3,1.2,0.3l0.9-2.1C46.1,17.1,45.6,16.7,44.5,16.7"/>
<path class="st0" d="M34.3,24.4c-0.2,0.1-0.8,0.7-1.9,0.7c-0.9,0-1.5-0.5-1.5-1.4c0-0.7,0.7-1.4,2.1-1.4h1.3V24.4z M34.6,25.9
	c0.2,0.5,0.6,1,1.5,1c0.5,0,1.1-0.1,1.2-0.2c-0.1-0.3-0.3-1.1-0.3-2.8v-3.5c0-2.6-1.7-3.7-4.2-3.7c-2.2,0-3.7,1-3.9,1.2
	c0,0,0.1,0.2,0.2,0.3c0.2,0.4,0.4,0.9,1,0.9c0.6,0,1.2-0.5,2.4-0.5c1.3,0,2,0.6,2,1.6v0.4h-0.8c-3.4,0-5.2,1.3-5.2,3.4
	c0,1.9,1.4,3.1,3.4,3.1C33.6,27.1,34.4,26,34.6,25.9"/>
<g>
	<path class="st0" d="M88.2,13.1v12.3c0,0.9-0.7,1.5-1.5,1.5h-0.5V13.1H88.2z"/>
	<path class="st0" d="M116.9,13.1v12.3c0,0.9-0.7,1.5-1.5,1.5h-0.5V13.1H116.9z"/>
	<rect x="100.2" y="13.1" class="st0" width="2.1" height="6.9"/>
	<path class="st0" d="M91.8,21.3v4.1c0,0.9,0.7,1.6,1.5,1.6h7.4c0.8,0,1.5-0.7,1.5-1.6v-4.1H91.8z M100.2,25.4h-6.3v-2.7h6.3V25.4z"
		/>
	<path class="st0" d="M113.4,18.1c0,3.1-1.8,5.2-4.3,5.2s-4.3-2.1-4.3-5.2s1.8-5.2,4.3-5.2S113.4,15,113.4,18.1z M109.1,14.3
		c-1.4,0-2.2,1.2-2.2,3.7s0.8,3.7,2.2,3.7s2.2-1.2,2.2-3.7S110.5,14.3,109.1,14.3z"/>
	<path class="st0" d="M81.2,15.8v-1.3h3v-1.5h-8.1v1.5h3v1.3l-3.5,5.6h1.6c0.4,0,0.8-0.2,1.1-0.6l1.9-3.3l1.9,3.3
		c0.3,0.4,0.6,0.6,1.1,0.6h1.6L81.2,15.8z"/>
	<path class="st0" d="M96.7,13.1H91v1.5h5c0,0.4-0.1,0.9-0.4,1.3h-4.4v1.4h3.2c-0.9,0.8-2.1,1.5-3.2,1.9c0,0,0.4,0.8,1.4,0.8
		c0.8,0,2.3-0.9,3.4-1.9c1.2-1.1,2-2.5,2-3.6C98,13.6,97.5,13.1,96.7,13.1z"/>
</g>
<g>
	<polygon class="st0" points="83,5.5 83,0 62,0 62,40 83,40 83,34.5 68.2,34.5 68.2,5.5 	"/>
	<polygon class="st0" points="110,5.5 110,0 131,0 131,40 110,40 110,34.5 124.8,34.5 124.8,5.5 	"/>
</g>
</svg>
